<svg xmlns="http://www.w3.org/2000/svg" viewBox="0 0 1160 149" fill="#0A0A0B" fill-rule="evenodd" role="img" aria-label="UTUTU">
  <title>UTUTU</title>
  <g transform="translate(8 8)">
    <path d="M0 0V57.0A76.0 76.0 0 0 0 152 57.0V0H130V57.0A54.0 54.0 0 0 1 22 57.0V0Z M248 0H400V22H335.0V133H313.0V22H248Z M496 0V57.0A76.0 76.0 0 0 0 648 57.0V0H626V57.0A54.0 54.0 0 0 1 518 57.0V0Z M744 0H896V22H831.0V133H809.0V22H744Z M992 0V57.0A76.0 76.0 0 0 0 1144 57.0V0H1122V57.0A54.0 54.0 0 0 1 1014 57.0V0Z"/>
  </g>
</svg>
